<svg stroke="#3EBD93" fill="#3EBD93" stroke-width="0" xmlns="http://www.w3.org/2000/svg" data-name="Layer 1" viewBox="0 0 64 64"><path d="M20.8 47.633h5.988v1.632h-4.08v1.824h2.976v1.632l-2.976.012v2.2h4.224v1.632H20.8zM30.6 53.789L29.24 56.561h-2.1l2.412-4.572-2.268-4.356h2.1L30.6 50.141l1.212-2.508h2.1L31.64 51.989l2.412 4.572h-2.1zM34.964 47.633h1.908v8.928H34.964zM40.112 51.089H43l.012 1.632-2.9.012v3.828H38.2V47.633h5.784v1.632H40.112z"/><path d="M53.84,17.73c-.02-.02-.04-.05-.06-.07a.484.484,0,0,0-.07-.08L39.42,3.29c-.02-.02-.05-.04-.07-.06s-.06-.05-.08-.07L39.12,3H14a4,4,0,0,0-4,4V57a4,4,0,0,0,4,4H50a4,4,0,0,0,4-4V17.88ZM39.71,6.41,50.59,17.29H41.71a2.006,2.006,0,0,1-2-2ZM30.8,14.357a2.46,2.46,0,1,1-2.459,2.46A2.46,2.46,0,0,1,30.8,14.357ZM16,30.65l5.849-15.643a1,1,0,0,1,1.844-.07l5.248,11.314a1,1,0,0,0,1.708.177l3.332-4.466a1,1,0,0,1,1.579-.031l6.828,8.44A1,1,0,0,1,41.613,32H16.939A1,1,0,0,1,16,30.65ZM52,57a2.006,2.006,0,0,1-2,2H14a2.006,2.006,0,0,1-2-2V41.46H25.73l2.7,3.09a.981.981,0,0,0,.75.34H52Z"/></svg>
